<svg id="a" width="900px" height="900px" enable-background="new -173 -143 900 900" version="1.1" viewBox="-173 -143 900 900" xmlns="http://www.w3.org/2000/svg">
 <style type="text/css">.st0{fill:none;}
	.st1{fill:#22ADF6;}</style>
 <rect id="b" class="st0" x="-173" y="-143" width="900" height="900"/>
 <g fill="#22adf6">
  <path d="m207.73 633.05 366.53-0.0197c2.434 0 4.9753 0 7.3424 0.29978v-0.27c59.868 0 108.57-54.646 108.57-121.83s-48.7-121.83-108.57-121.83c-8.4484 0-17.251 1.217-26.185 3.6977-2.8955 0.79414-5.9716 0.22434-8.4705-1.6637-2.4742-1.8603-4.1594-4.7896-4.6207-8.1151-12.12-86.685-77.695-149.62-155.88-149.62-87.116 0-158 79.538-158 177.32 0 4.7896 0.3344 9.5296 0.66879 14.245 0.26717 3.5486-0.88288 7.0481-3.163 9.5296-2.2803 2.4815-5.4165 3.6731-8.5809 3.3505-3.163-0.37523-6.3459-0.6234-9.6207-0.6234-48.014 0-87.094 43.876-87.094 97.753 0 53.902 39.079 97.778 87.094 97.778m-0.60156-219.45c0-0.84377-0.0175-1.7134-0.0175-2.5813 0-110.96 80.437-201.24 179.32-201.24 85.015 0 156.87 65.566 174.87 157.56 6.8783-1.2647 13.646-1.8603 20.281-1.8603 71.635 0 129.89 65.367 129.89 145.75 0 80.356-58.254 145.75-129.89 145.75h-0.14155c-1.5924-0.0199-42.574-0.0199-96.825-0.0199l-276.94 0.0199c-59.78 0-108.41-54.597-108.41-121.7 0-66.881 48.302-121.3 107.84-121.68"/>
  <path d="m-4.4834 292.81c0-106.56 77.274-193.25 172.22-193.25 58.077 0 108.35 27.894 140.35 82.317 3.23 5.5341 1.8792 12.955-3.0292 16.578-4.9351 3.6731-11.545 2.134-14.774-3.3751-28.043-47.698-71.679-71.596-122.55-71.596-83.201 0-150.9 75.939-150.9 169.32 0 57.798 25.877 111.05 69.202 142.4 4.9284 3.5988 6.3661 10.994 3.163 16.528-2.0129 3.5732-5.4434 5.4845-8.9348 5.4845-1.9928 0-4.0055-0.59361-5.7976-1.9099-49.429-35.786-78.955-96.537-78.955-162.5"/>
  <path d="m165.47 40.38c-5.9047 0-10.66-5.3358-10.66-11.937v-95.569c0-6.6008 4.7546-11.937 10.66-11.937 5.8847 0 10.66 5.336 10.66 11.937v95.569c0 6.601-4.7746 11.937-10.66 11.937"/>
  <path d="m48.852 77.63c-1.7463 1.217-3.6713 1.7868-5.5972 1.7868-3.5575 0-7.0554-2.0102-9.0898-5.6584l-44.808-81.25c-3.0761-5.609-1.5517-12.979 3.4507-16.478 5.022-3.4495 11.567-1.7372 14.686 3.8966l44.807 81.225c3.1163 5.6336 1.5711 12.979-3.4505 16.478"/>
  <path d="m-39.29 178.25c-1.6791 0-3.4038-0.47251-5.022-1.4156l-75.107-45.142c-5.1959-3.1021-7.166-10.349-4.3801-16.18 2.7617-5.8317 9.2221-8.0406 14.441-4.9133l75.107 45.142c5.1959 3.1267 7.1658 10.373 4.3599 16.18-1.8992 4.0453-5.597 6.3286-9.3994 6.3286"/>
  <path d="m-151.99 276.33h0.0354l85.192 0.27795c5.9049 0 10.66 5.3854 10.638 11.986-0.0173 6.601-4.7746 11.937-10.66 11.937h-0.0175l-85.192-0.27c-5.9047-0.0199-10.66-5.4102-10.66-12.036 0.0173-6.576 4.7744-11.887 10.66-11.887"/>
  <path d="m-118.38 449.32 74.797-45.886c5.1759-3.1515 11.655-1.0423 14.464 4.7894 2.8286 5.7823 0.92888 13.054-4.2463 16.206l-74.797 45.886c-1.6118 0.99266-3.3636 1.4394-5.1088 1.4394-3.7382 0-7.4088-2.2339-9.3554-6.2288-2.8086-5.7823-0.90234-13.054 4.2463-16.205"/>
  <path d="m449.29 128.43-74.797 45.861c-1.6384 1.0185-3.3836 1.4652-5.1089 1.4652-3.7582 0-7.4307-2.2585-9.3546-6.2288-2.8286-5.7823-0.92888-13.054 4.2463-16.205l74.797-45.886c5.1757-3.1763 11.634-1.0423 14.464 4.7648 2.8086 5.7823 0.92889 13.054-4.2463 16.23"/>
  <path d="m33.214 503.66c3.143-5.609 9.6869-7.3205 14.708-3.7719 4.9753 3.4741 6.4799 10.87 3.3636 16.453l-45.183 81.101c-2.0129 3.6234-5.5036 5.633-9.0457 5.633-1.9459 0-3.8919-0.6234-5.6372-1.8126-4.9953-3.5238-6.5266-10.919-3.3838-16.503l45.183-81.101z"/>
  <path d="m297.69 74.116c-2.0129 3.6234-5.5036 5.6336-9.045 5.6336-1.9259 0-3.8719-0.59362-5.6373-1.8364-4.9953-3.499-6.4999-10.87-3.3836-16.503l45.206-81.076c3.1161-5.6082 9.6869-7.3213 14.685-3.7968 4.9753 3.499 6.4999 10.87 3.3636 16.478z"/>
 </g>
</svg>
