<svg width="100" height="100" version="1.1" viewBox="0 0 26.458 26.458" xmlns="http://www.w3.org/2000/svg">
 <path d="m9.2873 24.813c-6.026-1.8341-6.0987-1.862-6.1-2.349-2.776e-4 -0.10244 0.43036-1.5614 0.95697-3.2421 0.81454-2.5997 0.99437-3.0907 1.2046-3.2893 0.1359-0.12839 0.33347-0.23326 0.43904-0.23304 0.10557 2.55e-4 2.7748 0.77888 5.9317 1.7304 6.0734 1.8305 6.1585 1.8631 6.1585 2.3618 0 0.23021-1.8143 6.05-1.9834 6.3622-0.12134 0.22402-0.43518 0.4113-0.6774 0.40422-0.11942-0.0034-2.7879-0.7888-5.93-1.7451zm7.9035 0.53286c0-0.28199 1.5838-5.2743 1.7553-5.5329 0.07495-0.11303 0.26156-0.26984 0.41467-0.34846 0.39938-0.20508 5.7581-1.3935 5.8566-1.2988 0.04886 0.04702-0.05361 0.20164-0.26295 0.39686-1.3113 1.2228-7.5427 6.8692-7.6413 6.9239-0.09128 0.05065-0.12234 0.01497-0.12234-0.14055zm-14.816-4.5287c-0.1503-0.58882-2.3654-10.166-2.3654-10.227 0-0.03773 0.048314-0.06835 0.10739-0.06805 0.14327 4.7e-4 3.8685 3.9643 4.0477 4.3066 0.0772 0.14751 0.13979 0.41334 0.13908 0.59074-0.00146 0.39265-1.6345 5.5592-1.7711 5.6036-0.053423 0.01738-0.12437-0.07511-0.15767-0.20553zm16.627-2.6351c-0.15455-0.12473-0.40412-1.0899-1.5565-6.0198-1.4615-6.2523-1.4458-6.1523-1.0099-6.4236 0.24233-0.15085 6.2697-1.5222 6.6726-1.5181 0.17284 0.00193 0.35987 0.071868 0.46273 0.17351 0.13394 0.13235 0.4778 1.4708 1.5341 5.9713 0.74879 3.1904 1.3621 5.8654 1.3628 5.9445 9.59e-4 0.0791-0.08673 0.24502-0.19442 0.36872-0.17724 0.2036-0.49272 0.29235-3.3289 0.93656-1.7232 0.39141-3.2738 0.71251-3.4458 0.71356-0.17294 9.78e-4 -0.39488-0.06446-0.4967-0.14664zm-7.217-1.6672c-3.6173-1.101-5.3931-1.6793-5.4552-1.7765-0.06839-0.10716-0.058927-0.19729 0.036871-0.35113 0.18567-0.2982 8.2257-7.6278 8.4727-7.724 0.1522-0.05927 0.23942-0.048076 0.33052 0.042443 0.06975 0.069298 0.69094 2.5418 1.4234 5.6656 1.4009 5.9745 1.3756 5.7967 0.82357 5.7827-0.14778-0.0038-2.6821-0.74137-5.6318-1.6392zm-7.6617-3.1713c-1.4967-1.5146-4.012-4.252-4.0684-4.4277-0.033508-0.10426-0.03794-0.27987-0.0099356-0.39025 0.063661-0.25062 8.9243-8.3422 9.2136-8.414 0.11228-0.027844 0.3097-0.004283 0.43871 0.052394 0.12902 0.05666 1.2494 1.1881 2.4897 2.5143 2.1479 2.2967 2.2551 2.4271 2.2551 2.7428 0 0.32889-0.03546 0.3639-4.5157 4.4559-5.3122 4.8519-4.7601 4.522-5.8031 3.4665zm11.389-8.641c-0.27285-0.13307-4.0995-4.1335-4.1479-4.3363-0.01529-0.063967 0.02338-0.1163 0.08591-0.1163 0.12886 3.86e-6 9.8884 2.9261 10.186 3.0541 0.27013 0.11601 0.24096 0.22831-0.08591 0.3308-0.56728 0.17787-5.2788 1.1988-5.5237 1.197-0.13947-9.881e-4 -0.37111-0.059245-0.51475-0.1293z"/>
</svg>
